<svg xmlns="http://www.w3.org/2000/svg" width="24" height="20" fill="none"><path fill="#737B86" d="m16.185 17.368-2.421-2.422a5.251 5.251 0 0 1-6.711-6.711l-3.09-3.09C1.407 7.416 0 10 0 10s4.5 8.25 12 8.25a10.544 10.544 0 0 0 4.185-.882ZM7.815 2.632A10.542 10.542 0 0 1 12 1.75c7.5 0 12 8.25 12 8.25s-1.409 2.582-3.962 4.857l-3.093-3.093a5.25 5.25 0 0 0-6.71-6.711l-2.42-2.42v-.001Z"/><path fill="#737B86" d="M8.288 9.469a3.75 3.75 0 0 0 4.243 4.244L8.286 9.469h.002Zm7.425 1.062-4.244-4.245a3.75 3.75 0 0 1 4.244 4.244v.001Zm4.756 9-18-18L3.531.469l18 18-1.062 1.062Z"/></svg>
