<svg xmlns="http://www.w3.org/2000/svg" width="544" height="634" fill="none"><g clip-path="url(#a)"><path fill="#F2F2F2" d="M525.662 233.529H17.092A17.116 17.116 0 0 1 0 216.437V17.092A17.112 17.112 0 0 1 17.092 0h508.57a17.11 17.11 0 0 1 17.092 17.092v199.345a17.114 17.114 0 0 1-17.092 17.092Z"/><path fill="#fff" d="M407.052 222.628H97.82a87.016 87.016 0 0 1-86.916-86.916V97.826A87.015 87.015 0 0 1 97.82 10.91h347.117a87.013 87.013 0 0 1 86.916 86.916 124.941 124.941 0 0 1-124.801 124.802Z"/><path fill="#E6E6E6" d="M327.283 67.976H122.876a4.409 4.409 0 0 1 0-8.816h204.407a4.41 4.41 0 0 1 0 8.816ZM430.757 115.006H122.876a4.407 4.407 0 1 1 0-8.816h307.881a4.412 4.412 0 0 1 4.408 4.408 4.41 4.41 0 0 1-4.408 4.408ZM430.757 162.037H122.876a4.407 4.407 0 1 1 0-8.816h307.881a4.412 4.412 0 0 1 4.408 4.408 4.412 4.412 0 0 1-4.408 4.408Z"/><path fill="#E6E6E6" d="M430.757 162.037H122.876a4.407 4.407 0 1 1 0-8.816h307.881a4.412 4.412 0 0 1 4.408 4.408 4.412 4.412 0 0 1-4.408 4.408Z"/><path stroke="#000" stroke-width="3" d="m323.625 140-6.905-11.049a9.087 9.087 0 0 1-11.007-8.547 9.138 9.138 0 0 1 17.912-2.918l8.53 11.931M373.932 168.017l-18.273-17.144s-7.944-2.127-5.02-4.71c2.924-2.583-5.408-5.074-5.408-5.074l-9.809-9.203-13.939 9.863 4.034 6.253s-.278 10.352 5.393 8.361c5.671-1.992 4.254 6.594 4.254 6.594l16.925 26.235"/><path fill="#1575A7" d="M260.855 169.835c31.251 0 56.586-25.335 56.586-56.586 0-31.252-25.335-56.586-56.586-56.586-31.252 0-56.586 25.334-56.586 56.586 0 31.251 25.334 56.586 56.586 56.586Z"/><path stroke="#000" stroke-width="3" d="M430.5 602.5h-8.86l-4.698-18H430.5v18Z"/><path fill="#6366F1" d="M438.254 631.987h-8.437l-1.507-7.967-3.857 7.967h-22.379a5.03 5.03 0 0 1-4.755-6.671 5.028 5.028 0 0 1 1.897-2.5l17.871-12.342v-8.053l18.797 1.122 2.37 28.444Z"/><path stroke="#000" stroke-width="3" d="M336.5 602.5h-8.646l-4.713-12.708 13.359-.262v12.97Z"/><path fill="#6366F1" d="M344.152 631.987h-8.438l-1.506-7.967-3.857 7.967h-22.379a5.03 5.03 0 0 1-4.755-6.671 5.028 5.028 0 0 1 1.897-2.5l17.871-12.342v-8.053l18.797 1.122 2.37 28.444Z"/><path stroke="#000" stroke-width="3" d="M416.5 300.787v16.254l-52.771-14.267-1.988-17.713 54.759 15.726Z"/><path stroke="#000" stroke-width="3" d="m429.301 397.861.087.307-3.397 70.517-.034.7.514.474.001.001.01.009.02.019.031.03a18.039 18.039 0 0 1 .954 1.012 17.91 17.91 0 0 1 2.02 2.797c1.332 2.319 1.916 4.803.48 6.933-2.403 3.565-1.271 7.108.197 9.485a16.415 16.415 0 0 0 2.268 2.851c.284.288.538.525.737.705l13.851 88.364-61.177-.434-.444-28.46a.195.195 0 0 1 .025-.002c.935-.084 2.357-.402 3.352-1.578 1.048-1.24 1.286-3.017.719-5.252-.565-2.222-1.973-5.139-4.586-9.014-1.121-1.662-2.061-4.33-2.793-7.882-.724-3.52-1.217-7.77-1.525-12.492-.614-9.443-.478-20.644-.018-31.408.459-10.757 1.239-21.042 1.905-28.641.333-3.798.637-6.924.857-9.098.111-1.088.2-1.937.262-2.514l.071-.658.019-.167.005-.042.001-.01v-.002l-1.491-.168 1.491.167.011-.095-.002-.096-.188-12.093-.389-24.985-.063-4.007-2.584 3.063-60.298 71.477-.541.641.263.796 6.141 18.635.044.341a227.906 227.906 0 0 0 .941 6.307c.672 4.115 1.689 9.694 3.065 15.534 1.374 5.832 3.117 11.967 5.251 17.179 2.104 5.138 4.697 9.661 7.917 11.957 2.513 1.792 4.631 5.024 6.37 9.091 1.726 4.033 3.005 8.712 3.943 13.191.937 4.471 1.523 8.7 1.875 11.813.166 1.464.28 2.679.353 3.553l-51.519 2.165-5.362-27.928-.119-.62-.523-.346-.001-.001h-.001v-.001l-.006-.004a8.499 8.499 0 0 1-.253-.182c-.184-.138-.455-.35-.785-.633a18.877 18.877 0 0 1-2.43-2.536c-1.773-2.234-3.496-5.464-3.496-9.593 0-2.283-.305-10.3-.606-17.692-.151-3.709-.302-7.276-.416-9.917-.056-1.32-.104-2.409-.137-3.167l-.038-.878-.01-.231-.003-.059-.001-.015v-.004l-1.498.065 1.498-.066-.005-.109-.02-.107-7.385-38.462 9.075-21.591 43.726-104.038 17.26-36.337 9.324-11.02 56.289 13.74 12.916 41.42-.647 13.433-.015.304.105.284v.001l.001.003.006.018.028.078.051.147.056.166c.092.275.219.672.359 1.156.281.972.605 2.264.796 3.585.195 1.346.234 2.601.027 3.552-.201.925-.563 1.31-1.004 1.467-1.85.662-2.633 2.38-2.944 3.951-.315 1.598-.239 3.458-.038 5.142a39.66 39.66 0 0 0 .844 4.552c.147.605.281 1.106.38 1.457ZM422.26 183.408s11.004-8.215 11.004 41.12l-1.827 18.272-4.568 6.395-6.396 19.186s1.809 11.877 5.473 15.988c3.664 4.112 3.664 20.557-14.609 14.161l-51.619-14.161c-4.329-7.247-4.771-2.681.457-12.333l-2.741-18.273-11.107-33.721 6.082-31.602 15.532-5.482 18.729-17.815M382.5 150.5c-14.968 0-12.5-4.032-12.5-19"/><path fill="#04072F" stroke="#000" stroke-width="3" d="M376.396 127.15a10.43 10.43 0 0 1-.489 1.987c-.678.078-1.358.154-2.038.229-.677.076-1.353.151-2.027.228l4.554-2.444Zm0 0a7.398 7.398 0 0 0-1.029-1.403l1.098-1.022 1.494-.132c.066.759.061 1.52-.016 2.273.306.622.54 1.279.696 1.961l9.73-1.097-11.973-.58Zm55.851 40.537-.169.614.325.548a1.84 1.84 0 0 1 .136 1.584 1.83 1.83 0 0 1-1.155 1.092l-.009.003-.008.002c-2.149.713-3.818 2.088-5.232 3.545a46.43 46.43 0 0 0-2.008 2.249l-.195.228c-.572.672-1.117 1.313-1.68 1.919-1.187 1.279-2.705 2.409-4.234 3.002-1.519.59-2.895.602-4.043-.057l-.001-.001c-1.196-.685-1.917-1.942-2.746-3.743-.085-.184-.171-.376-.26-.573-.705-1.563-1.563-3.464-3.03-4.854l-.001-.001c-3.375-3.192-8.675-2.644-12.193-.491l-.002.002-.096.058-.016.01-.017.011a1.852 1.852 0 0 1-2.833-1.88l3.34-17.768-2.86-.852a58.284 58.284 0 0 1-12.193 18.438l-.032.032-.03.035a12.254 12.254 0 0 1-4.783 3.382c-.362.1-.808.001-1.771-.384l-.202-.082-.22-.089c1.018-1.277 2.175-2.93 3.377-4.834 2.085-3.301 4.39-7.489 6.461-12.093 4.11-9.135 7.436-20.2 5.983-29.246l-.227-1.414-1.422.161-8.486.956a10.444 10.444 0 0 0-2.153-3.494l-2.973-3.191.381 4.345a8.995 8.995 0 0 1-.217 2.903l-1.044.116-.008.001c-.674.075-1.352.15-2.028.228-1.976.22-3.487.292-4.596-.384-.858-.524-1.389-1.446-1.605-2.736-.218-1.301-.081-2.824.269-4.225 2.123-8.431 8.595-15.561 16.585-19.307 1.843-.861 3.266-.992 4.495-.815 1.283.185 2.456.716 3.846 1.39l.288.14c2.699 1.314 5.948 2.895 10.784 1.367 8.319-2.627 15.516-1.663 21.174 1.903 5.687 3.584 10.003 9.914 12.274 18.344v.001c3.826 14.177 1.069 29.326-2.94 43.905Zm4.388-44.296c3.938 14.59 1.078 30.076-2.942 44.694a3.32 3.32 0 0 1 .247 2.882 3.323 3.323 0 0 1-2.101 1.987c-2.821.936-4.8 3.262-6.766 5.572a61.112 61.112 0 0 1-1.722 1.966c-2.604 2.804-6.797 5.134-10.123 3.225-1.839-1.054-2.728-3.015-3.629-5.002-.724-1.596-1.455-3.209-2.693-4.381-2.704-2.558-7.199-2.248-10.378-.302l-.095.059a3.352 3.352 0 0 1-5.128-3.41l45.33-47.29Z"/><path fill="#F0F0F0" d="M508.725 632.576h-33.186l-.143-.259a35.779 35.779 0 0 1-1.216-2.423c-3.419-7.318-4.864-15.688-6.139-23.073l-.96-5.566a3.442 3.442 0 0 1 1.573-3.503 3.44 3.44 0 0 1 3.838.141c5.043 3.669 10.088 7.336 15.136 10.999 1.911 1.39 4.094 3 6.184 4.739.202-.98.413-1.962.623-2.931a3.445 3.445 0 0 1 4.768-2.407c.625.28 1.152.74 1.513 1.321l3.883 6.238c2.832 4.556 5.332 9.045 4.822 13.887a.742.742 0 0 1-.013.176 10.994 10.994 0 0 1-.563 2.331l-.12.33Z"/><path fill="#CACACA" d="m542.035 633.294-315.358.307a1.19 1.19 0 0 1 0-2.381l315.358-.307a1.187 1.187 0 0 1 1.185 1.19 1.19 1.19 0 0 1-1.185 1.191Z"/><path fill="#3F3D56" d="m255.711 189.409-34.688-29.294a5.862 5.862 0 0 1-.696-8.256l6.384-7.56a5.867 5.867 0 0 1 8.257-.696l34.688 29.294a5.862 5.862 0 0 1 .696 8.256l-6.384 7.56a5.867 5.867 0 0 1-8.257.696Z"/><path fill="#fff" d="M222.843 152.468a3.167 3.167 0 0 0 .375 4.45l34.688 29.294a3.16 3.16 0 0 0 4.45-.376l6.384-7.56c.539-.64.803-1.468.733-2.302a3.164 3.164 0 0 0-1.108-2.147l-34.688-29.294a3.163 3.163 0 0 0-4.449.375l-6.385 7.56Z"/><path fill="#1575A7" d="M243.207 163.856a1.327 1.327 0 0 1-1.054.558l-5.45.125a1.322 1.322 0 0 1-.952-.369 1.336 1.336 0 0 1-.043-1.885 1.325 1.325 0 0 1 .934-.413l3.565-.082-3.511-9.265a1.33 1.33 0 0 1 1.794-1.686c.322.144.574.411.7.741l4.18 11.028a1.334 1.334 0 0 1-.141 1.218l-.022.03Z"/><path stroke="#000" stroke-width="3" d="m249.99 193.45-10.932-9.777a9.14 9.14 0 0 1-1.5-16.129 9.133 9.133 0 0 1 6.348-1.359 9.093 9.093 0 0 1 6.422 4.231 9.094 9.094 0 0 1 .878 7.64l12.793 9.855"/><path stroke="#000" stroke-width="3" d="m349.022 234.648-40.311 15.034s-24.946-27.703-34.242-25.06c-9.297 2.643-10.74-7.86-10.74-7.86s-4.881-9.406-8.147-5.962c-3.266 3.443-5.185-16.442-5.185-16.442l10.534-12.243 18.153 12.213s16.433 3.059 11.271 7.583c-5.162 4.524 21.251 14.297 21.251 14.297l32.754-20.139"/><path fill="#fff" d="M258.865 135.948a4.892 4.892 0 0 1-3.913-1.958l-11.998-15.997a4.878 4.878 0 0 1-.929-3.627 4.903 4.903 0 0 1 1.907-3.222 4.896 4.896 0 0 1 6.849.979l7.85 10.465 20.16-30.24a4.894 4.894 0 0 1 6.784-1.357 4.892 4.892 0 0 1 1.357 6.784l-23.996 35.994a4.893 4.893 0 0 1-4.071 2.179Z"/></g><defs><clipPath id="a"><path fill="#fff" d="M0 0h543.219v633.601H0z"/></clipPath></defs></svg>
